<svg xmlns="http://www.w3.org/2000/svg" viewBox="12 12 75 75"><defs><style>.cls-2{fill:#843926}.cls-3{fill:#ff6f47}.cls-4{fill:#ff673c}.cls-5{fill:#ffede8}</style></defs><g id="Layer_3" data-name="Layer 3"><rect width="45.84" height="53.2" x="20.94" y="17.27" class="cls-2" rx="8.66"/><rect width="16.03" height="1.1" x="26.68" y="22.64" class="cls-3"/><rect width="6.31" height="1.1" x="43.69" y="22.64" class="cls-3"/><rect width="7.13" height="1.08" x="26.68" y="24.97" class="cls-3"/><rect width="3.92" height="1.08" x="34.69" y="24.97" class="cls-3"/><rect width="8.09" height="1.08" x="39.46" y="24.97" class="cls-3"/><rect width="8.58" height="1.1" x="26.68" y="27.28" class="cls-3"/><rect width="13.76" height="1.1" x="36.24" y="27.28" class="cls-3"/><rect width="2.36" height="1.08" x="26.68" y="29.62" class="cls-3"/><rect width="8.69" height="1.08" x="29.92" y="29.62" class="cls-3"/><rect width="8.09" height="1.08" x="39.46" y="29.62" class="cls-3"/><rect width="16.03" height="1.1" x="26.68" y="32.21" class="cls-3"/><rect width="6.31" height="1.1" x="43.69" y="32.21" class="cls-3"/><rect width="7.13" height="1.08" x="26.68" y="34.55" class="cls-3"/><rect width="3.92" height="1.08" x="34.69" y="34.55" class="cls-3"/><rect width="8.09" height="1.08" x="39.46" y="34.55" class="cls-3"/><rect width="8.58" height="1.1" x="26.68" y="36.86" class="cls-3"/><rect width="13.76" height="1.1" x="36.24" y="36.86" class="cls-3"/><rect width="2.36" height="1.08" x="26.68" y="39.19" class="cls-3"/><rect width="8.69" height="1.08" x="29.92" y="39.19" class="cls-3"/><rect width="8.09" height="1.08" x="39.46" y="39.19" class="cls-3"/><rect width="16.03" height="1.1" x="26.68" y="41.74" class="cls-3"/><rect width="6.31" height="1.1" x="43.69" y="41.74" class="cls-3"/><rect width="7.13" height="1.08" x="26.68" y="44.07" class="cls-3"/><rect width="3.92" height="1.08" x="34.69" y="44.07" class="cls-3"/><rect width="8.09" height="1.08" x="39.46" y="44.07" class="cls-3"/><rect width="8.58" height="1.1" x="26.68" y="46.38" class="cls-3"/><rect width="13.76" height="1.1" x="36.24" y="46.38" class="cls-3"/><rect width="2.36" height="1.08" x="26.68" y="48.72" class="cls-3"/><rect width="8.69" height="1.08" x="29.92" y="48.72" class="cls-3"/><rect width="8.09" height="1.08" x="39.46" y="48.72" class="cls-3"/><rect width="16.03" height="1.1" x="26.68" y="52.93" class="cls-3"/><rect width="6.31" height="1.1" x="43.69" y="52.93" class="cls-3"/><rect width="7.13" height="1.08" x="26.68" y="55.27" class="cls-3"/><rect width="3.92" height="1.08" x="34.69" y="55.27" class="cls-3"/><rect width="8.09" height="1.08" x="39.46" y="55.27" class="cls-3"/><rect width="8.58" height="1.1" x="26.68" y="57.57" class="cls-3"/><rect width="13.76" height="1.1" x="36.24" y="57.57" class="cls-3"/><rect width="2.36" height="1.08" x="26.68" y="59.91" class="cls-3"/><rect width="8.69" height="1.08" x="29.92" y="59.91" class="cls-3"/><rect width="8.09" height="1.08" x="39.46" y="59.91" class="cls-3"/><rect width="45.84" height="53.2" x="33.13" y="29.45" class="cls-4" rx="8.66"/></g><g id="Isolation_Mode" data-name="Isolation Mode"><path d="M56.05,39.74a17,17,0,1,0,17,17,17,17,0,0,0-17-17Zm0,2.83A14.16,14.16,0,1,1,41.89,56.73,14.14,14.14,0,0,1,56.05,42.57ZM62,48.32a.78.78,0,0,0-.54.35L54.5,59l-3.28-3.24a.72.72,0,0,0-1.1-.17l-1.29,1.28a1.07,1.07,0,0,0,0,1.28l5,5a2.59,2.59,0,0,0,1.11.44,1.27,1.27,0,0,0,1-.57l8.5-12.48c.28-.43.12-.83-.44-1.11l-1.42-1a1.05,1.05,0,0,0-.57,0Zm0,0" class="cls-5"/></g></svg>